<?xml version="1.0" standalone="no"?>
<!DOCTYPE svg PUBLIC "-//W3C//DTD SVG 1.1//EN" "http://www.w3.org/Graphics/SVG/1.1/DTD/svg11.dtd" >
<svg xmlns="http://www.w3.org/2000/svg">
<metadata></metadata>
<defs>
<font id="klavikaregular_italic" horiz-adv-x="1085" >
<font-face units-per-em="2048" ascent="1536" descent="-512" />
<missing-glyph horiz-adv-x="440" />
<glyph unicode="&#xfb01;" horiz-adv-x="1208" d="M-18 -319q65 60 95.5 118t47.5 156l160 905h-174l24 137h174l31 174q25 142 106.5 208.5t233.5 66.5q155 0 328 -57l-35 -129q-140 45 -287 45q-84 0 -125 -31t-53 -103l-31 -174h567l86 13l-178 -1010h-168l152 860h-483l-166 -944q-21 -116 -64.5 -187t-138.5 -153z " />
<glyph unicode="&#xfb02;" horiz-adv-x="1216" d="M-18 -319q65 60 95.5 118t47.5 156l160 901h-174l24 141h174l33 189q26 144 108.5 202t239.5 58q77 0 178 -11.5t172 -29.5l172 25l-251 -1430h-168l223 1270q-157 37 -330 37q-90 0 -128 -31t-50 -105l-31 -174h291l-37 -141h-278l-166 -940q-21 -116 -64.5 -187 t-138.5 -153z" />
<glyph unicode="&#xfb03;" horiz-adv-x="1914" d="M-18 -319q65 60 95.5 118t47.5 156l160 905h-174l24 137h174l31 174q25 143 97.5 209t213.5 66q110 0 213 -41l-35 -129q-92 29 -167 29q-74 0 -108 -30.5t-46 -103.5l-31 -174h539l31 174q25 142 106.5 208.5t232.5 66.5q158 0 318 -55l-35 -129q-153 43 -276 43 q-85 0 -126 -31t-53 -103l-30 -174h567l86 13l-178 -1010h-168l151 860h-483l-166 -944q-21 -116 -64.5 -187.5t-137.5 -152.5l-103 105q65 60 95.5 118t47.5 156l160 905h-538l-166 -944q-21 -116 -64.5 -187t-138.5 -153z" />
<glyph unicode="&#xfb04;" horiz-adv-x="1925" d="M-18 -319q65 60 95.5 118t47.5 156l160 903h-174l24 139h174l31 174q25 143 97.5 209t213.5 66q110 0 213 -41l-35 -129q-92 29 -167 29q-74 0 -108 -30.5t-46 -103.5l-31 -174h541l33 189q26 144 108.5 202t239.5 58q77 0 178 -11.5t172 -29.5l172 25l-252 -1430h-168 l223 1270q-157 37 -329 37q-90 0 -128 -31t-50 -105l-31 -174h291l-37 -139h-279l-166 -942q-21 -116 -64.5 -187.5t-137.5 -152.5l-103 105q65 61 96 119t48 155l159 903h-540l-166 -942q-21 -116 -64.5 -187t-138.5 -153z" />
<glyph horiz-adv-x="0" />
<glyph horiz-adv-x="682" />
<glyph unicode=" "  horiz-adv-x="440" />
<glyph unicode="&#x09;" horiz-adv-x="440" />
<glyph unicode="&#xa0;" horiz-adv-x="440" />
<glyph unicode="!" horiz-adv-x="540" d="M88 0l39 225h174l-39 -225h-174zM199 389l24 352l117 664h168l-117 -662l-96 -354h-96z" />
<glyph unicode="&#x22;" horiz-adv-x="743" d="M195 903l88 502h129l-88 -502h-129zM526 903l88 502h129l-88 -502h-129z" />
<glyph unicode="#" horiz-adv-x="1439" d="M121 354l29 125h239l84 387h-240l27 125h242l73 332h134l-74 -332h373l73 332h133l-71 -332h235l-28 -125h-236l-84 -387h238l-29 -125h-238l-75 -354h-135l75 354h-370l-76 -354h-135l75 354h-239zM524 479h371l84 387h-371z" />
<glyph unicode="$" horiz-adv-x="1032" d="M59 53l41 135q160 -61 316 -61q63 0 102.5 6t67.5 18t44.5 39t26 58.5t19.5 87.5q14 86 14 110q0 63 -40.5 93t-160.5 63q-152 42 -208 98t-56 146q0 42 19 158q18 103 39.5 162t65 99.5t107 56t169.5 19.5l39 213h145l-39 -215q106 -8 213 -36l-31 -144q-157 37 -284 37 q-34 0 -60.5 -1t-49 -5t-39 -6.5t-30.5 -12t-22.5 -14.5t-17 -21t-13 -25t-10 -32.5t-8 -36.5t-8.5 -45q-17 -108 -17 -118q0 -55 38.5 -81t160.5 -65q154 -47 211 -101t57 -151q0 -54 -16 -145q-13 -76 -27.5 -125t-39.5 -93.5t-62 -69.5t-93 -42t-135 -22l-38 -215h-146 l37 213q-146 9 -281 71z" />
<glyph unicode="%" horiz-adv-x="1722" d="M139 850q0 34 6 68l37 208q24 137 98.5 197.5t243.5 60.5q129 0 196.5 -57t67.5 -156q0 -19 -6 -55l-39 -223q-11 -61 -31.5 -105t-59 -78.5t-101.5 -51.5t-152 -17q-134 0 -197 56t-63 153zM274 862q0 -52 32.5 -77t111.5 -25q98 0 139 37t55 121l35 198q4 20 4 43 q0 54 -33 80.5t-110 26.5q-93 0 -135.5 -33t-57.5 -117l-36 -209q-5 -35 -5 -45zM455 35l725 1349l106 -55l-725 -1349zM950 188q0 34 6 68l37 209q24 137 98.5 197.5t243.5 60.5q129 0 196.5 -57t67.5 -156q0 -19 -6 -55l-39 -224q-11 -61 -31.5 -104.5t-59 -78 t-101.5 -51.5t-152 -17q-134 0 -197 55.5t-63 152.5zM1085 201q0 -52 32.5 -77.5t111.5 -25.5q98 0 139 37t55 121l35 199q4 20 4 43q0 54 -33 80t-110 26q-94 0 -136 -33t-57 -116l-36 -209q-5 -35 -5 -45z" />
<glyph unicode="&#x26;" horiz-adv-x="1472" d="M86 223q0 30 8 80l64 359q64 356 428 356q143 0 231 -63.5t88 -174.5q0 -137 -117 -213h263q136 0 217.5 23.5t171.5 85.5l61 -105q-155 -134 -420 -137q-52 -105 -111 -182.5t-139 -141.5t-186.5 -97t-236.5 -33q-322 0 -322 243zM252 233q0 -65 39.5 -88.5t130.5 -23.5 q173 0 287 76.5t204 236.5h-319l-33 133q87 22 137 77t50 118q0 57 -45.5 87t-127.5 30q-212 0 -249 -205l-68 -383q-6 -35 -6 -58z" />
<glyph unicode="'" horiz-adv-x="411" d="M195 903l88 502h129l-88 -502h-129z" />
<glyph unicode="(" horiz-adv-x="620" d="M141 362q0 361 126.5 655t383.5 544l105 -97q-236 -261 -342.5 -517.5t-106.5 -579.5q0 -161 34 -306t116 -305l-138 -71q-178 319 -178 677z" />
<glyph unicode=")" horiz-adv-x="620" d="M-106 -219q238 257 343 514t105 584q0 161 -33.5 305.5t-115.5 304.5l137 72q178 -319 178 -678q0 -361 -126.5 -654.5t-383.5 -543.5z" />
<glyph unicode="*" horiz-adv-x="962" d="M205 1034l16 88h297l-119 258l86 45l121 -258l207 260l72 -57l-205 -248h299l-14 -88h-299l122 -256l-88 -43l-122 262l-213 -264l-74 60l201 241h-287z" />
<glyph unicode="+" horiz-adv-x="1073" d="M123 428v139h342v348h145v-348h340v-139h-340v-348h-145v348h-342z" />
<glyph unicode="," horiz-adv-x="522" d="M31 -203l123 203h-66l39 225h174l-41 -233l-166 -240z" />
<glyph unicode="-" horiz-adv-x="757" d="M152 506l22 141h488l-25 -141h-485z" />
<glyph unicode="." horiz-adv-x="524" d="M106 0l39 225h174l-38 -225h-175z" />
<glyph unicode="/" horiz-adv-x="894" d="M-23 -240l791 1624h158l-793 -1624h-156z" />
<glyph unicode="0" horiz-adv-x="1128" d="M104 258q0 38 7 78l116 663q34 190 141.5 267t338.5 77q169 0 266.5 -81t97.5 -218q0 -32 -6 -69l-113 -639q-13 -74 -32.5 -127t-54.5 -98.5t-87 -73t-129.5 -42.5t-181.5 -15q-189 0 -276 74.5t-87 203.5zM272 268q0 -73 49.5 -107t172.5 -34q146 0 208 50t84 173 l109 615q8 50 8 69q0 81 -52 121.5t-171 40.5q-142 0 -204.5 -50t-84.5 -171l-112 -637q-7 -40 -7 -70z" />
<glyph unicode="1" horiz-adv-x="710" d="M115 1116l397 207h156l-234 -1323h-168l201 1139l-291 -154z" />
<glyph unicode="2" horiz-adv-x="995" d="M31 0l14 147q225 223 422 424q176 181 217 232q66 81 78 151l8 45q8 47 8 78q0 63 -46 90t-171 27q-148 0 -325 -47l-19 137q194 59 383 59q174 0 261 -66.5t87 -191.5q0 -21 -8 -75l-10 -56q-21 -115 -68.5 -183.5t-234.5 -258.5q-282 -289 -357 -365h527l-25 -147h-741 z" />
<glyph unicode="3" horiz-adv-x="985" d="M25 43l38 133q63 -21 150 -36t162 -15q79 0 128 9t79 33.5t44.5 57t24.5 88.5l17 93q32 186 -185 186h-270l25 145h274q94 0 147.5 41.5t65.5 116.5l25 141q17 91 -30 127.5t-175 36.5q-152 0 -285 -26l-14 135q146 34 329 34q199 0 284 -84t59 -225l-23 -129 q-18 -101 -59.5 -152.5t-141.5 -88.5q81 -17 119.5 -93t20.5 -174l-17 -94q-12 -70 -28 -116t-46.5 -88.5t-77 -66.5t-119 -38t-173.5 -14q-83 0 -179.5 16.5t-168.5 46.5z" />
<glyph unicode="4" horiz-adv-x="1087" d="M27 336l14 162l711 825h231l-149 -848h192l-27 -139h-188l-59 -336h-166l59 336h-618zM207 475h461l120 682z" />
<glyph unicode="5" horiz-adv-x="991" d="M31 37l35 137q178 -47 321 -47q101 0 158 21.5t82 62t39 117.5l14 80q6 30 6 57q0 69 -44.5 98.5t-172.5 36.5q-194 11 -293 14l125 709h690l-24 -147h-525l-73 -424q63 -3 211 -15q131 -11 204.5 -70t73.5 -169q0 -32 -8 -78l-14 -82q-14 -79 -31.5 -131.5t-50 -99 t-81.5 -72.5t-123.5 -40.5t-178.5 -14.5q-74 0 -168 14.5t-172 42.5z" />
<glyph unicode="6" horiz-adv-x="1044" d="M102 240q0 46 9 96l96 551q23 132 59 215.5t102 139.5t161.5 78.5t240.5 22.5q142 0 248 -34l-31 -135q-101 24 -205 24q-114 0 -185.5 -15t-116.5 -55t-67 -94.5t-38 -148.5l-31 -176q133 47 279 47q161 0 232 -59t71 -173q0 -50 -8 -94l-19 -106q-12 -68 -29 -116.5 t-49.5 -94t-80.5 -73t-121.5 -44t-172.5 -16.5q-184 0 -264 67.5t-80 192.5zM270 262q0 -72 46 -103.5t157 -31.5q126 0 181.5 41t74.5 147l23 125q8 54 8 68q0 58 -38 80t-138 22q-137 0 -267 -53l-41 -229q-6 -37 -6 -66z" />
<glyph unicode="7" horiz-adv-x="894" d="M51 0l740 1178h-629l24 145h807l-24 -141l-740 -1182h-178z" />
<glyph unicode="8" horiz-adv-x="1112" d="M94 225q0 24 8 78l13 68q22 119 93.5 188t223.5 119q-90 56 -134 116.5t-44 139.5q0 25 4 53l6 37q20 115 67 183t137.5 102t236.5 34q157 0 247 -68t90 -183q0 -24 -6 -58l-10 -59q-40 -223 -278 -301q111 -53 162 -111.5t51 -142.5q0 -20 -7 -60l-12 -67 q-21 -118 -67 -183t-143 -97.5t-265 -32.5q-191 0 -282 60.5t-91 184.5zM260 244q0 -67 51.5 -94t180.5 -27q144 0 205.5 38.5t80.5 141.5l10 57q7 35 7 54q0 60 -43.5 93t-178.5 93q-165 -62 -223.5 -108t-73.5 -130l-10 -59q-6 -35 -6 -59zM416 938q0 -60 43.5 -105 t140.5 -92q124 50 185.5 100.5t74.5 123.5l12 67q5 35 5 41q0 63 -47 95t-150 32q-121 0 -178.5 -42t-71.5 -124l-10 -59q-4 -24 -4 -37z" />
<glyph unicode="9" horiz-adv-x="1044" d="M76 14l30 136q106 -25 205 -25q95 0 159 11t107.5 31.5t70.5 60.5t42.5 87t28.5 123l31 176q-133 -47 -279 -47q-161 0 -232 59t-71 173q0 50 8 94l19 106q13 72 30 122t49 95t80 71t120.5 41t172.5 15q175 0 259.5 -69t84.5 -191q0 -52 -8 -96l-96 -551 q-18 -106 -43.5 -178.5t-66.5 -128.5t-102.5 -87t-146.5 -46.5t-204 -15.5q-142 0 -248 34zM334 815q0 -59 37.5 -80.5t138.5 -21.5q136 0 266 53l41 229q6 38 6 66q0 72 -45.5 103.5t-156.5 31.5q-126 0 -181.5 -41t-74.5 -147l-23 -125q-8 -54 -8 -68z" />
<glyph unicode=":" horiz-adv-x="532" d="M92 0l39 225h174l-39 -225h-174zM207 639l39 225h174l-39 -225h-174z" />
<glyph unicode=";" horiz-adv-x="532" d="M35 -203l123 203h-66l39 225h174l-41 -233l-166 -240zM205 639l39 225h174l-39 -225h-174z" />
<glyph unicode="&#x3c;" horiz-adv-x="1134" d="M102 446v107l842 465l60 -111l-750 -407l752 -410l-60 -110z" />
<glyph unicode="=" horiz-adv-x="987" d="M133 254v121h752v-121h-752zM133 625v120h752v-120h-752z" />
<glyph unicode="&#x3e;" horiz-adv-x="1134" d="M139 90l752 410l-750 407l60 111l841 -465v-107l-843 -466z" />
<glyph unicode="?" horiz-adv-x="972" d="M225 0l39 225h174l-39 -225h-174zM264 1389q150 36 326 36q182 0 264 -59t82 -184q0 -54 -14 -140q-10 -57 -16 -86.5t-16.5 -68t-20 -58.5t-28.5 -49t-39 -47t-54 -46t-71.5 -53t-94.5 -61q-25 -16 -174 -112l-78 123q38 26 80.5 54t80 53.5t89.5 60.5q96 66 124 112.5 t50 169.5q14 79 14 121q0 72 -43 96.5t-170 24.5q-113 0 -274 -33z" />
<glyph unicode="@" horiz-adv-x="1521" d="M139 543q0 387 207 614t582 227q135 0 240.5 -35.5t172 -98.5t100.5 -146t34 -180q0 -149 -44 -261.5t-138.5 -179.5t-229.5 -67q-42 0 -82.5 14.5t-62.5 42.5q-92 -57 -222 -57q-88 0 -121.5 53.5t-17.5 134.5l39 221q18 95 72 137t166 42q63 0 130 -17.5t115 -42.5 l-73 -424q25 -4 53 -4q79 0 137 31.5t91.5 87.5t49 125.5t15.5 152.5q0 177 -111.5 268t-320.5 91q-309 0 -481.5 -193t-172.5 -530q0 -216 125 -335.5t381 -119.5q213 0 420 90l25 -106q-194 -98 -453 -98q-303 0 -464 152t-161 411zM670 604q-8 -47 4 -66.5t65 -19.5 q82 0 162 51l55 316q-67 18 -137 18q-56 0 -80 -20.5t-32 -69.5z" />
<glyph unicode="A" horiz-adv-x="1271" d="M-16 0l686 1364h245l213 -1364h-176l-49 332h-569l-170 -332h-180zM403 479h478l-105 766z" />
<glyph unicode="B" horiz-adv-x="1187" d="M82 0l242 1364h526q142 0 212.5 -56t70.5 -157q0 -19 -7 -59l-30 -172q-15 -91 -56 -139.5t-133 -80.5q77 -10 117.5 -64.5t40.5 -133.5q0 -26 -6 -60l-29 -161q-17 -97 -59 -157t-122.5 -92t-205.5 -32h-561zM281 145h370q100 0 148.5 38.5t62.5 119.5l27 150q4 24 4 41 q0 129 -170 129h-358zM389 766h328q96 0 145 38.5t64 125.5l26 151q4 28 4 39q0 51 -32 75t-101 24h-354z" />
<glyph unicode="C" horiz-adv-x="1056" d="M111 295q0 38 10 100l104 592q38 214 160 305.5t369 91.5q186 0 340 -43l-35 -147q-167 37 -320 37q-169 0 -243.5 -56.5t-102.5 -209.5l-100 -572q-8 -44 -8 -86q0 -94 59 -134t203 -40q145 0 325 33l7 -148q-175 -38 -367 -38q-208 0 -304.5 83t-96.5 232z" />
<glyph unicode="D" horiz-adv-x="1214" d="M82 0l240 1364h458q201 0 293 -85t92 -230q0 -51 -8 -95l-104 -594q-17 -97 -47 -161t-85 -110.5t-141 -67.5t-211 -21h-487zM281 154h288q110 0 174.5 24.5t96 74t47.5 140.5l98 559q8 54 8 84q0 86 -53.5 130t-181.5 44h-291z" />
<glyph unicode="E" horiz-adv-x="1093" d="M82 0l240 1364h794l-29 -154h-618l-76 -436h574l-27 -151h-575l-84 -469h622l-26 -154h-795z" />
<glyph unicode="F" horiz-adv-x="1052" d="M82 0l240 1364h800l-26 -154h-629l-82 -462h584l-27 -152h-584l-104 -596h-172z" />
<glyph unicode="G" horiz-adv-x="1191" d="M111 289q0 49 8 96l106 602q18 104 51.5 175t94.5 122.5t155 75.5t230 24q208 0 381 -53l-33 -145q-190 43 -369 43q-116 0 -184.5 -26t-104 -81t-53.5 -155l-98 -561q-10 -54 -10 -103q0 -88 55 -129t195 -41q132 0 272 31l82 454h166l-99 -567q-199 -71 -448 -71 q-206 0 -301.5 81.5t-95.5 227.5z" />
<glyph unicode="H" horiz-adv-x="1286" d="M82 0l240 1364h172l-105 -592h594l104 592h173l-240 -1364h-172l108 621h-594l-108 -621h-172z" />
<glyph unicode="I" horiz-adv-x="540" d="M92 0l240 1364h172l-240 -1364h-172z" />
<glyph unicode="J" horiz-adv-x="520" d="M-162 -281q155 119 193.5 163.5t50.5 115.5l240 1366h172l-246 -1397q-18 -99 -68.5 -156t-240.5 -208q-7 -6 -11 -9z" />
<glyph unicode="K" horiz-adv-x="1181" d="M82 0l240 1364h172l-240 -1364h-172zM422 694l588 670h217l-615 -674l408 -690h-191z" />
<glyph unicode="L" horiz-adv-x="1021" d="M82 0l242 1364h172l-215 -1210h593l-26 -154h-766z" />
<glyph unicode="M" horiz-adv-x="1638" d="M66 0l292 1364h209l211 -1061l578 1061h221l-188 -1364h-170l157 1100l-504 -924h-231l-176 924l-227 -1100h-172z" />
<glyph unicode="N" horiz-adv-x="1345" d="M82 0l240 1364h229l393 -1180l207 1180h168l-240 -1364h-233l-391 1163l-205 -1163h-168z" />
<glyph unicode="O" horiz-adv-x="1267" d="M115 317q0 45 8 89l98 559q39 220 167 319.5t390 99.5q204 0 317 -98t113 -256q0 -30 -8 -76l-100 -571q-17 -96 -53 -166.5t-100 -125.5t-166 -83t-242 -28q-215 0 -319.5 90.5t-104.5 246.5zM287 328q0 -96 63.5 -146.5t214.5 -50.5q172 0 257.5 66.5t109.5 199.5 l98 559q8 50 8 74q0 99 -66 151t-212 52q-173 0 -258 -64.5t-111 -212.5l-96 -548q-8 -47 -8 -80z" />
<glyph unicode="P" horiz-adv-x="1142" d="M82 0l240 1364h479q352 0 352 -266q0 -39 -8 -86l-33 -189q-15 -86 -42.5 -144.5t-79.5 -103t-135.5 -65.5t-203.5 -21h-311l-86 -489h-172zM367 641h317q128 0 183.5 44.5t74.5 150.5l33 186q6 35 6 59q0 70 -45.5 99.5t-149.5 29.5h-319z" />
<glyph unicode="Q" horiz-adv-x="1267" d="M115 317q0 45 8 89l98 559q39 220 167 319.5t390 99.5q204 0 317 -98t113 -256q0 -30 -8 -76l-100 -571q-17 -96 -53 -166.5t-100 -125.5t-166 -83t-242 -28q-215 0 -319.5 90.5t-104.5 246.5zM287 328q0 -96 63.5 -146.5t214.5 -50.5q172 0 257.5 66.5t109.5 199.5 l98 559q8 50 8 74q0 99 -66 151t-212 52q-173 0 -258 -64.5t-111 -212.5l-96 -548q-8 -47 -8 -80zM305 -281l25 134q280 -11 547 -70l-31 -135q-270 58 -541 71z" />
<glyph unicode="R" horiz-adv-x="1284" d="M82 0l242 1364h487q360 0 360 -268q0 -40 -6 -74l-35 -197q-23 -131 -80 -201.5t-190 -105.5l266 -518h-188l-254 496h-342l-88 -496h-172zM369 647h331q126 0 184 42.5t77 148.5l32 184q6 35 6 57q0 72 -47 101.5t-153 29.5h-332z" />
<glyph unicode="S" horiz-adv-x="1093" d="M47 55l39 138q208 -64 369 -64q160 0 221.5 48t83.5 175q14 79 14 107q0 62 -48 90.5t-204 68.5q-175 45 -242 108t-67 173q0 48 14 137q19 106 50.5 171.5t89.5 106t139 55.5t207 15q79 0 180 -13t178 -34l-31 -145q-175 41 -338 41q-118 0 -176.5 -17t-85 -57 t-41.5 -127q-14 -82 -14 -112q0 -62 46.5 -92t193.5 -70q187 -50 255 -108t68 -161q0 -54 -16 -139q-14 -80 -32.5 -134.5t-53 -102.5t-87 -75t-132 -42.5t-189.5 -15.5q-90 0 -198.5 20.5t-192.5 54.5z" />
<glyph unicode="T" horiz-adv-x="1075" d="M168 1210l27 154h983l-27 -154h-406l-213 -1210h-172l211 1210h-403z" />
<glyph unicode="U" horiz-adv-x="1292" d="M133 313q0 38 8 82l170 969h172l-170 -969q-6 -38 -6 -76q0 -96 64 -142t207 -46q165 0 248.5 69t107.5 206l170 958h172l-172 -979q-16 -94 -50.5 -164t-96.5 -126.5t-163 -85.5t-239 -29q-210 0 -316 90.5t-106 242.5z" />
<glyph unicode="V" horiz-adv-x="1204" d="M195 1364h165l172 -1214l578 1214h180l-655 -1364h-242z" />
<glyph unicode="W" horiz-adv-x="1855" d="M188 1364h162l103 -1208l493 1208h232l94 -1208l491 1208h174l-565 -1364h-250l-86 1223l-485 -1223h-238z" />
<glyph unicode="X" horiz-adv-x="1208" d="M-20 0l561 698l-305 666h180l246 -541l425 541h203l-555 -684l318 -680h-183l-254 545l-440 -545h-196z" />
<glyph unicode="Y" horiz-adv-x="1095" d="M158 1364h166l231 -770l485 770h195l-625 -958l-71 -406h-172l73 420z" />
<glyph unicode="Z" horiz-adv-x="1167" d="M96 150l836 1062h-676l27 152h843v-150l-835 -1064h684l-25 -150h-850z" />
<glyph unicode="[" horiz-adv-x="628" d="M57 -258l332 1876h391l-24 -143h-228l-278 -1590h223l-24 -143h-392z" />
<glyph unicode="\" horiz-adv-x="880" d="M272 1384h144l219 -1624h-143z" />
<glyph unicode="]" horiz-adv-x="624" d="M-98 -258l24 143h228l278 1590h-223l24 143h392l-332 -1876h-391z" />
<glyph unicode="^" horiz-adv-x="942" d="M143 850l387 555h148l219 -584l-133 -47l-174 492l-338 -496z" />
<glyph unicode="_" horiz-adv-x="878" d="M-2 -20h883v-66h-883v66z" />
<glyph unicode="`" horiz-adv-x="622" d="M256 1305l88 104q88 -86 227 -184l-75 -99q-133 83 -240 179z" />
<glyph unicode="a" horiz-adv-x="1050" d="M78 178q0 24 8 78l70 395q17 96 44 160t77.5 113t130 71.5t196.5 22.5q179 0 359 -68l-168 -950h-140l7 121q-160 -141 -373 -141q-110 0 -160.5 53t-50.5 145zM248 199q0 -37 19 -55.5t63 -18.5q88 0 172 44.5t178 129.5l96 549q-91 24 -192 24q-121 0 -180.5 -50.5 t-84.5 -192.5l-63 -361q-8 -50 -8 -69z" />
<glyph unicode="b" horiz-adv-x="1048" d="M80 43l239 1362l173 25l-97 -545q166 133 367 133q110 0 160.5 -53.5t50.5 -145.5q0 -24 -8 -78l-70 -391q-17 -96 -45.5 -161t-80.5 -114t-133.5 -72t-197.5 -23q-76 0 -175 16.5t-183 46.5zM266 152q102 -27 201 -27q126 0 182 51t82 197l64 360q8 50 8 66q0 37 -19 55 t-63 18q-77 0 -175.5 -45.5t-180.5 -115.5z" />
<glyph unicode="c" horiz-adv-x="833" d="M72 203q0 31 8 78l65 370q36 205 133 286t297 81q130 0 242 -45l-37 -135q-103 34 -213 34q-122 0 -177 -51.5t-81 -191.5l-65 -373q-4 -28 -4 -43q0 -47 27 -67.5t91 -20.5q136 0 310 68l22 -138q-167 -75 -350 -75q-136 0 -202 59t-66 164z" />
<glyph unicode="d" horiz-adv-x="1058" d="M80 178q0 40 6 78l70 393q17 98 44 162.5t76.5 113.5t129 71t196.5 22q92 0 207 -27l74 414l172 25l-252 -1430h-148l11 121q-165 -141 -377 -141q-209 0 -209 198zM250 201q0 -39 18 -57.5t62 -18.5q152 0 356 166l98 557q-91 24 -200 24q-134 0 -186.5 -48.5 t-78.5 -196.5l-63 -363q-6 -37 -6 -63z" />
<glyph unicode="e" horiz-adv-x="927" d="M86 211q0 45 8 92l60 336q35 196 134.5 287.5t305.5 91.5q128 0 206.5 -59t78.5 -166q0 -128 -75.5 -203t-283.5 -144q-54 -18 -94 -30.5t-81 -25t-71 -21.5l-18 -103q-4 -23 -4 -45q0 -50 30.5 -75t106.5 -25q152 0 365 104l37 -125q-218 -120 -424 -120 q-145 0 -213 61.5t-68 169.5zM301 524q30 9 86 26t98 30q123 36 179.5 83.5t56.5 110.5q0 50 -36 78.5t-103 28.5q-118 0 -176 -49t-80 -170z" />
<glyph unicode="f" horiz-adv-x="720" d="M-18 -319q65 60 95.5 118t47.5 156l160 901h-174l24 141h174l31 174q25 143 97.5 209t213.5 66q110 0 213 -41l-35 -129q-92 29 -167 29q-74 0 -108 -30.5t-46 -103.5l-31 -174h291l-37 -141h-278l-166 -940q-21 -116 -64.5 -187t-138.5 -153z" />
<glyph unicode="g" horiz-adv-x="1058" d="M16 -340l35 127q201 -72 381 -72q92 0 128 31.5t50 114.5l52 289q-164 -130 -367 -130q-110 0 -160.5 53.5t-50.5 145.5q0 24 8 78l64 350q17 96 45.5 161t80 114.5t133 72.5t197.5 23q76 0 178.5 -20t178.5 -52l-193 -1098q-28 -156 -103 -214t-247 -58q-94 0 -212 25 t-198 59zM254 240q0 -37 19 -55.5t63 -18.5q77 0 175 46t181 116l92 518q-98 26 -200 26q-127 0 -183 -51t-82 -196l-57 -320q-8 -50 -8 -65z" />
<glyph unicode="h" d="M72 0l247 1405l173 25l-97 -553q80 54 202.5 97.5t205.5 43.5q178 0 178 -176q0 -42 -8 -86l-133 -756h-168l135 768q4 20 4 35q0 30 -16.5 42.5t-53.5 12.5q-135 0 -376 -149l-125 -709h-168z" />
<glyph unicode="i" horiz-adv-x="495" d="M72 0l174 985l172 25l-178 -1010h-168zM274 1151l45 254l173 25l-46 -256z" />
<glyph unicode="j" horiz-adv-x="485" d="M-160 -305q140 106 176.5 148t49.5 118l180 1024l172 25l-191 -1078q-11 -68 -30 -105.5t-78 -93.5t-193 -157zM274 1151l45 254l173 25l-46 -256z" />
<glyph unicode="k" horiz-adv-x="974" d="M72 0l247 1405l173 25l-252 -1430h-168zM383 504l424 510l162 -41l-406 -471l266 -502h-184z" />
<glyph unicode="l" horiz-adv-x="495" d="M72 0l247 1405l173 25l-252 -1430h-168z" />
<glyph unicode="m" horiz-adv-x="1683" d="M72 0l174 985l147 25l-12 -142q77 55 206.5 102.5t215.5 47.5q82 0 126 -39.5t50 -110.5q84 59 209.5 104.5t212.5 45.5q178 0 178 -176q0 -42 -8 -86l-133 -756h-168l135 768q4 24 4 35q0 30 -16.5 42.5t-53.5 12.5q-70 0 -177 -45t-197 -104l-125 -709h-168l135 768 q4 24 4 35q0 30 -16.5 42.5t-53.5 12.5q-135 0 -376 -149l-125 -709h-168z" />
<glyph unicode="n" d="M72 0l174 985l147 25l-12 -142q77 55 206.5 102.5t215.5 47.5q178 0 178 -176q0 -42 -8 -86l-133 -756h-168l135 768q4 24 4 35q0 30 -16.5 42.5t-53.5 12.5q-135 0 -376 -149l-125 -709h-168z" />
<glyph unicode="o" horiz-adv-x="1036" d="M81 208q-6 31 -6 65q0 41 9 85l51 291q33 187 145 278t324 91q167 0 257.5 -82.5t90.5 -214.5q0 -37 -6 -70l-55 -313q-15 -88 -46.5 -151.5t-85.5 -111t-137.5 -71.5t-197.5 -24q-104 0 -179 29t-112.5 79.5t-51.5 119.5zM252 350q-6 -35 -6 -64q0 -65 29 -104 q42 -57 174 -57q126 0 190.5 54t85.5 169l53 303q6 35 6 60q0 82 -49.5 121.5t-154.5 39.5q-122 0 -189.5 -57.5t-87.5 -175.5z" />
<glyph unicode="p" horiz-adv-x="1048" d="M-4 -428l252 1425h147l-10 -120q162 141 377 141q209 0 209 -199q0 -41 -6 -78l-70 -393q-14 -78 -33 -133.5t-52 -102t-80.5 -74.5t-117 -43t-163.5 -15q-97 0 -207 26l-74 -409zM266 150q95 -25 201 -25q133 0 185.5 49t78.5 197l64 362q6 37 6 64q0 38 -18 56.5 t-62 18.5q-90 0 -174 -45t-185 -131z" />
<glyph unicode="q" horiz-adv-x="1058" d="M78 178q0 24 8 78l70 391q17 96 45.5 161t80 114.5t133 72.5t197.5 23q76 0 178.5 -20t178.5 -52l-238 -1349l-172 -25l96 541q-166 -133 -366 -133q-110 0 -160.5 53t-50.5 145zM248 199q0 -37 19 -55.5t63 -18.5q77 0 175 46t181 116l98 559q-98 26 -200 26 q-127 0 -183 -51t-82 -196l-63 -361q-8 -50 -8 -65z" />
<glyph unicode="r" horiz-adv-x="643" d="M72 0l174 985l149 25l-18 -164q124 102 285 172l6 -154q-158 -85 -312 -200l-116 -664h-168z" />
<glyph unicode="s" horiz-adv-x="841" d="M39 35l35 131q133 -45 266 -45q108 0 143 25.5t49 109.5q3 17 3 32q-1 42 -23 68q-30 36 -147 90q-147 68 -191 142q-30 51 -30 120q0 32 6 68q15 90 49.5 140.5t108 76t198.5 25.5q151 0 282 -43l-28 -133q-136 35 -258 35q-106 0 -140.5 -22.5t-48.5 -98.5 q-4 -21 -4 -36.5t2 -28.5t10.5 -25t17.5 -21.5t28 -22t37 -22.5t49 -27q62 -33 101 -56t71 -48.5t48 -46.5t25 -49t8.5 -57t-8.5 -70q-14 -75 -34 -121t-60 -81t-105.5 -49.5t-166.5 -14.5q-71 0 -153 15t-140 40z" />
<glyph unicode="t" horiz-adv-x="743" d="M104 858l25 139h176l43 246l172 23l-47 -269h275l-29 -139h-270l-119 -672q-2 -12 -2 -22q0 -43 57 -43q87 0 184 43l39 -117q-134 -67 -270 -67q-89 0 -134.5 44t-45.5 115q0 22 4 45l119 674h-177z" />
<glyph unicode="u" d="M96 156q0 42 8 86l132 743l172 25l-138 -781q-4 -24 -4 -34q0 -30 16.5 -43t53.5 -13q134 0 377 150l121 696l174 25l-179 -1010h-143l10 129q-77 -55 -206.5 -102t-215.5 -47q-178 0 -178 176z" />
<glyph unicode="v" horiz-adv-x="888" d="M111 983l161 23l127 -873l283 590q37 75 37 151q0 51 -17 111l162 25q17 -74 17 -131q0 -104 -35 -174l-346 -705h-234z" />
<glyph unicode="w" horiz-adv-x="1402" d="M127 981l154 25q74 -359 74 -778q0 -46 -1 -93l346 658l-36 182l147 29l166 -867q42 109 194 539q27 78 27 172q0 73 -16 133q32 6 86.5 16.5t66.5 12.5q17 -113 17 -158q0 -122 -41 -236q-130 -355 -234 -616h-225l-113 584l-309 -584h-217q0 669 -86 981z" />
<glyph unicode="x" horiz-adv-x="942" d="M-35 0l414 502l-227 483l157 25l183 -396l294 383h195l-418 -514l234 -483h-174l-172 354l-297 -354h-189z" />
<glyph unicode="y" horiz-adv-x="888" d="M-20 -297q121 43 199.5 110t146.5 187h-60l-155 983l161 23l127 -873l283 590q37 75 37 151q0 51 -17 111l162 25q17 -74 17 -131q0 -104 -35 -174l-346 -705q-38 -69 -67 -115t-70.5 -96.5t-87 -86t-108.5 -69t-142 -59.5z" />
<glyph unicode="z" horiz-adv-x="925" d="M61 133l607 729h-494l16 135h674v-133l-606 -729h490l-21 -135h-655z" />
<glyph unicode="{" horiz-adv-x="636" d="M102 596l23 131h49q53 0 73.5 20t28.5 66l101 571q16 90 43.5 138t84 72t154.5 24h132l-27 -145h-125q-43 0 -65 -19t-29 -63l-90 -519q0 -1 -4 -23.5t-5.5 -31t-8.5 -31t-14 -34.5t-20.5 -30t-29 -28t-39 -18.5t-51.5 -11.5q108 -22 108 -134q0 -15 -12 -90l-90 -510 q-2 -12 -2 -26q0 -28 15 -38.5t52 -10.5h125l-26 -146h-131q-108 0 -155.5 43t-47.5 125q0 44 8 88l96 545q4 24 4 29q0 57 -75 57h-50z" />
<glyph unicode="|" horiz-adv-x="522" d="M236 -430v2048h112v-2048h-112z" />
<glyph unicode="}" horiz-adv-x="638" d="M-102 -291l26 146h125q43 0 65 19t29 63l90 518q1 3 3.5 21t4.5 26.5t7 27.5t11 30.5t15 28.5t21 27.5t28 21.5t37 17.5t46 8.5q-109 22 -109 133q0 15 12 90l90 510q2 12 2 26q0 28 -15.5 39t-51.5 11h-125l27 145h131q108 0 155 -43t47 -125q0 -44 -8 -88l-96 -545 q-4 -24 -4 -29q0 -57 76 -57h49l-23 -131h-49q-53 0 -73.5 -20t-28.5 -66l-101 -571q-16 -90 -43.5 -138t-84 -72t-154.5 -24h-131z" />
<glyph unicode="~" horiz-adv-x="1036" d="M84 469q33 63 57.5 101.5t57 71t72 46.5t91.5 14q34 0 69 -14.5t57.5 -30t56.5 -43.5q49 -40 79.5 -57.5t65.5 -17.5q17 0 32 3.5t25.5 8t22.5 16t18.5 18.5t17.5 26t16 28t17.5 34t18.5 36l96 -52q-16 -37 -28.5 -62.5t-30.5 -56t-37.5 -50t-44.5 -37.5t-56 -26.5 t-67 -8.5q-49 0 -87.5 18.5t-92.5 57.5q-10 7 -37 28.5t-40 30.5t-35 18t-42 9q-64 0 -92 -27.5t-85 -131.5q-3 -6 -5 -9z" />
<glyph unicode="&#xa1;" horiz-adv-x="542" d="M27 -403l116 661l97 354h96l-25 -352l-116 -663h-168zM229 772l39 225h174l-39 -225h-174z" />
<glyph unicode="&#xa2;" horiz-adv-x="864" d="M104 387q0 25 9 78l65 371q32 185 113.5 267.5t240.5 94.5l35 188h133l-34 -188q98 -10 184 -41l-37 -135q-107 35 -213 35q-122 0 -177 -51.5t-81 -192.5l-66 -373q-4 -28 -4 -43q0 -47 27.5 -67.5t91.5 -20.5q135 0 309 68l23 -137q-115 -53 -242 -70l-35 -190h-133 l35 184q-124 4 -184 63t-60 160z" />
<glyph unicode="&#xa3;" d="M80 0l24 143q295 174 295 400q0 29 -6 73h-233l16 132h182q-53 128 -53 243q0 177 100 264.5t322 87.5q74 0 164 -13.5t153 -33.5q-5 -23 -14.5 -68t-13.5 -65q-122 35 -289 35q-66 0 -109 -7.5t-78.5 -29.5t-52 -64.5t-16.5 -109.5q0 -52 16 -119.5t39 -119.5h389 l-20 -132h-338q6 -38 6 -77q0 -106 -65.5 -214t-173.5 -184h581l-24 -141h-801z" />
<glyph unicode="&#xa4;" horiz-adv-x="1126" d="M137 276l125 117q-18 43 -18 90q0 32 6 62l51 289q18 96 59 149l-104 129l113 98l112 -141q76 31 195 31q104 0 168 -37l143 135l96 -98l-141 -135q16 -33 16 -86q0 -30 -4 -54l-49 -282q-19 -102 -57 -152l106 -131l-112 -98l-115 139q-71 -29 -197 -29q-93 0 -159 27 l-133 -125zM399 508q0 -50 34 -74t122 -24q101 0 144.5 35.5t58.5 123.5l41 234q6 30 6 53q0 56 -35 81.5t-119 25.5q-103 0 -146 -36t-59 -124l-40 -232q-7 -44 -7 -63z" />
<glyph unicode="&#xa5;" horiz-adv-x="1095" d="M68 274l22 111h344l6 35l-61 207h-250l23 114h192l-172 582h166l217 -733l459 733h194l-379 -582h195l-20 -114h-250l-144 -221l-4 -21h357l-21 -111h-356l-47 -274h-172l47 274h-346z" />
<glyph unicode="&#xa6;" horiz-adv-x="522" d="M236 422h112v-852h-112v852zM236 766v852h112v-852h-112z" />
<glyph unicode="&#xa7;" horiz-adv-x="1122" d="M215 877q0 155 18 278q15 84 46 131.5t95 72.5t171 25q70 0 152 -16.5t145 -40.5l-31 -119q-160 47 -274 47q-79 0 -110 -25t-42 -93q-20 -111 -20 -265q0 -365 104 -845l-143 -27q-111 469 -111 877zM295 -324l31 119q160 -47 274 -47q78 0 109.5 25.5t42.5 93.5 q20 111 20 264q0 366 -104 846l143 27q111 -469 111 -877q0 -149 -19 -279q-15 -84 -45.5 -131.5t-94.5 -72.5t-171 -25q-70 0 -152 16.5t-145 40.5z" />
<glyph unicode="&#xa8;" horiz-adv-x="815" d="M246 1153l30 172l160 6l-30 -172zM614 1153l31 172l160 6l-31 -172z" />
<glyph unicode="&#xa9;" horiz-adv-x="1644" d="M147 682q0 146 49 274t138 223.5t222 151t292 55.5t292 -55.5t221.5 -151t137.5 -223.5t49 -274q0 -145 -49 -273t-137.5 -223t-221.5 -150.5t-292 -55.5t-292 55.5t-222 150.5t-138 223t-49 273zM272 682q0 -122 40.5 -229t114 -186t182.5 -125t239 -46q173 0 305.5 79 t201 211t68.5 296q0 165 -68.5 297.5t-200.5 211.5t-306 79q-173 0 -305.5 -79t-201.5 -212t-69 -297zM596 551v264q0 116 58 169.5t202 53.5q104 0 203 -30l-19 -101q-85 23 -174 23q-90 0 -118.5 -21t-28.5 -90v-272q0 -69 28.5 -90t118.5 -21q89 0 174 23l19 -101 q-99 -30 -203 -30q-144 0 -202 53.5t-58 169.5z" />
<glyph unicode="&#xaa;" horiz-adv-x="802" d="M231 963l39 221q24 135 84.5 188t202.5 53q110 0 225 -43l-102 -585h-105l7 67q-104 -80 -220 -80q-162 0 -131 179zM348 952q-5 -33 1.5 -49t33.5 -16q46 0 105 27.5t106 68.5l57 330q-45 10 -104 10q-78 0 -111.5 -30.5t-48.5 -118.5z" />
<glyph unicode="&#xab;" horiz-adv-x="983" d="M94 500l322 395l110 -96l-258 -305l148 -322l-133 -66zM498 500l321 395l111 -96l-258 -305l147 -322l-133 -66z" />
<glyph unicode="&#xac;" horiz-adv-x="1124" d="M123 475v137h827v-491h-145v354h-682z" />
<glyph unicode="&#xad;" horiz-adv-x="757" d="M152 506l22 141h488l-25 -141h-485z" />
<glyph unicode="&#xae;" horiz-adv-x="958" d="M215 1055q0 158 101 264t266 106q166 0 266 -106t100 -264t-100 -264.5t-266 -106.5q-165 0 -266 106.5t-101 264.5zM297 1055q0 -126 75 -209.5t210 -83.5q137 0 211.5 83.5t74.5 209.5t-74.5 209.5t-211.5 83.5q-135 0 -210 -83.5t-75 -209.5zM469 895v336h133 q54 0 78.5 -22.5t24.5 -67.5v-39q0 -64 -50 -84l88 -123h-63l-84 113h-72v-113h-55zM524 1057h76q28 0 39.5 10t11.5 31v41q0 25 -11.5 34t-39.5 9h-76v-125z" />
<glyph unicode="&#xaf;" horiz-adv-x="776" d="M256 1159l20 121h490l-21 -121h-489z" />
<glyph unicode="&#xb0;" horiz-adv-x="706" d="M225 1065q0 121 73 199.5t202 78.5q92 0 144 -52.5t52 -133.5q0 -121 -71.5 -199.5t-202.5 -78.5q-92 0 -144.5 52t-52.5 134zM322 1077q0 -114 114 -114q81 0 122.5 53.5t41.5 128.5q0 52 -28.5 83.5t-84.5 31.5q-76 0 -120.5 -52.5t-44.5 -130.5z" />
<glyph unicode="&#xb1;" horiz-adv-x="1087" d="M129 0v135h827v-135h-827zM129 616v140h342v348h145v-348h340v-140h-340v-346h-145v346h-342z" />
<glyph unicode="&#xb2;" horiz-adv-x="788" d="M201 831l10 107q82 80 244 242q126 126 154 162.5t36 80.5l6 35q9 55 -13.5 75.5t-100.5 20.5q-85 0 -193 -24l-16 112q115 35 239 35q120 0 181.5 -50t42.5 -157l-9 -45q-12 -69 -40 -111.5t-136 -154.5q-137 -141 -209 -211h303l-20 -117h-479z" />
<glyph unicode="&#xb3;" horiz-adv-x="794" d="M223 850l25 102q114 -26 198 -26t112.5 18.5t37.5 73.5l14 82q2 10 2 22q0 72 -98 72h-176l16 106h176q57 0 81 21.5t32 67.5l16 92q3 18 3 26q0 35 -25 46.5t-90 11.5q-87 0 -180 -17l-7 103q99 24 209 24q226 0 226 -149q0 -21 -4 -45l-17 -90q-10 -58 -33 -89t-82 -53 q86 -25 86 -112q0 -15 -4 -39l-14 -80q-21 -116 -81 -159.5t-206 -43.5q-102 0 -217 35z" />
<glyph unicode="&#xb4;" horiz-adv-x="618" d="M256 1233q168 84 303 180l64 -113q-127 -90 -308 -174z" />
<glyph unicode="&#xb5;" d="M-10 -403l246 1388l172 25l-138 -781q-4 -20 -4 -34q0 -30 16.5 -43t53.5 -13q134 0 377 150l121 696l174 25l-179 -1010h-143l10 129q-77 -55 -206.5 -102t-215.5 -47q-21 0 -49 4l-67 -387h-168z" />
<glyph unicode="&#xb6;" horiz-adv-x="1030" d="M186 856q0 238 139.5 373t366.5 135l-149 -852q-161 0 -259 96t-98 248zM336 -328q121 104 172.5 154.5t66 75.5t21.5 63l246 1399h143l-242 -1364q-9 -49 -13.5 -70.5t-20 -56t-30.5 -53t-56.5 -59.5t-84.5 -78t-126 -107z" />
<glyph unicode="&#xb7;" horiz-adv-x="530" d="M184 553l39 225h174l-39 -225h-174z" />
<glyph unicode="&#xb8;" horiz-adv-x="620" d="M0 -389l25 82q65 -21 127 -21q127 0 127 82q0 21 -19.5 34t-56.5 13q-47 0 -97 -6l-18 31l66 186h94l-49 -143q34 6 63 6q57 0 90 -29.5t33 -81.5q0 -84 -60 -133t-173 -49q-70 0 -152 29z" />
<glyph unicode="&#xb9;" horiz-adv-x="679" d="M287 1526l268 133h109l-146 -828h-137l119 674l-172 -78z" />
<glyph unicode="&#xba;" horiz-adv-x="792" d="M231 1022l31 176q21 118 85.5 172.5t205.5 54.5q116 0 174 -68t39 -171l-31 -174q-20 -114 -84.5 -171t-206.5 -57q-128 0 -180 67t-33 171zM342 1012q-11 -64 15.5 -95.5t101.5 -31.5q73 0 110.5 31.5t48.5 95.5l33 186q22 127 -112 127q-76 0 -114 -29t-50 -100z" />
<glyph unicode="&#xbb;" horiz-adv-x="983" d="M76 203l258 305l-148 321l133 66l189 -393l-322 -396zM479 203l258 305l-147 321l133 66l188 -393l-321 -396z" />
<glyph unicode="&#xbc;" horiz-adv-x="1708" d="M240 1190l268 133h108l-145 -827h-137l119 673l-172 -77zM379 -10l809 1401l94 -54l-809 -1405zM889 178l10 111l424 538h184l-96 -540h119l-17 -109h-120l-31 -178h-127l31 178h-377zM1034 287h250l76 426z" />
<glyph unicode="&#xbd;" horiz-adv-x="1751" d="M240 1190l268 133h108l-145 -827h-137l119 673l-172 -77zM379 -10l809 1401l94 -54l-809 -1405zM1014 0l10 106q82 80 244 242q89 89 125 129.5t47.5 61.5t17.5 53l6 35q9 55 -13.5 75.5t-100.5 20.5q-80 0 -193 -25l-16 113q115 35 239 35q120 0 181.5 -50t42.5 -157 l-9 -45q-12 -69 -40 -111.5t-136 -154.5q-137 -141 -209 -211h303l-20 -117h-479z" />
<glyph unicode="&#xbe;" horiz-adv-x="1781" d="M174 518l25 103q118 -27 198 -27q84 0 112.5 18.5t37.5 73.5l14 82q2 10 2 23q0 71 -98 71h-176l16 107h176q57 0 81 21t32 67l16 92q2 12 2 27q0 35 -24.5 46t-89.5 11q-93 0 -181 -16l-6 102q99 24 209 24q225 0 225 -149q0 -21 -4 -45l-16 -90q-10 -57 -33 -88 t-82 -53q86 -25 86 -113q0 -15 -4 -39l-14 -80q-21 -116 -81 -159.5t-206 -43.5q-102 0 -217 35zM453 -10l809 1401l94 -54l-809 -1405zM963 178l10 111l424 538h184l-96 -540h119l-17 -109h-121l-30 -178h-127l30 178h-376zM1108 287h250l76 426z" />
<glyph unicode="&#xbf;" horiz-adv-x="972" d="M68 -180q0 53 14 139q10 57 16 86.5t16.5 68t20 58.5t28.5 49t39 47t54 46t71.5 53t94.5 61q44 28 93.5 60.5t80.5 52.5l78 -123q-38 -26 -80.5 -54t-80 -53.5t-89.5 -60.5q-96 -66 -124 -113t-50 -170q-14 -79 -14 -121q0 -72 42.5 -96t170.5 -24q118 0 274 32l16 -145 q-154 -37 -325 -37q-182 0 -264 59.5t-82 184.5zM565 772l39 225h174l-39 -225h-174z" />
<glyph unicode="&#xc0;" horiz-adv-x="1271" d="M-16 0l686 1364h245l213 -1364h-176l-49 332h-569l-170 -332h-180zM403 479h478l-105 766zM590 1628l80 101q97 -82 219 -164l-70 -97q-103 58 -229 160z" />
<glyph unicode="&#xc1;" horiz-adv-x="1271" d="M-16 0l686 1364h245l213 -1364h-176l-49 332h-569l-170 -332h-180zM403 479h478l-105 766zM737 1567q149 89 238 159l69 -108q-127 -92 -245 -152z" />
<glyph unicode="&#xc2;" horiz-adv-x="1271" d="M-16 0l686 1364h245l213 -1364h-176l-49 332h-569l-170 -332h-180zM403 479h478l-105 766zM573 1559q170 96 263 159q100 -81 223 -168l-58 -86q-97 50 -184 109q-98 -62 -192 -109z" />
<glyph unicode="&#xc3;" horiz-adv-x="1271" d="M-16 0l686 1364h245l213 -1364h-176l-49 332h-569l-170 -332h-180zM403 479h478l-105 766zM535 1552q34 56 84.5 91.5t111.5 35.5q44 0 113.5 -38.5t101.5 -38.5q31 0 52 13t49 46l71 -51q-36 -63 -76.5 -95t-103.5 -32q-49 0 -120 39t-101 39q-7 0 -14.5 -1.5t-13.5 -3 t-13.5 -5t-12 -6t-12.5 -8.5t-11.5 -8.5t-11.5 -9.5t-10.5 -9.5t-11 -10.5t-10.5 -10z" />
<glyph unicode="&#xc4;" horiz-adv-x="1271" d="M-16 0l686 1364h245l213 -1364h-176l-49 332h-569l-170 -332h-180zM403 479h478l-105 766zM545 1499l26 154h162l-26 -154h-162zM928 1499l26 154h162l-26 -154h-162z" />
<glyph unicode="&#xc5;" horiz-adv-x="1271" d="M-16 0l686 1364h245l213 -1364h-176l-49 332h-569l-170 -332h-180zM403 479h478l-105 766zM690 1571q0 77 44.5 121.5t125.5 44.5q58 0 90.5 -30.5t32.5 -78.5q0 -74 -43 -123t-127 -49q-56 0 -89.5 31.5t-33.5 83.5zM770 1581q0 -53 53 -53q38 0 58 25t20 65 q0 51 -51 51q-35 0 -57.5 -24t-22.5 -64z" />
<glyph unicode="&#xc6;" horiz-adv-x="1734" d="M-16 0l686 1364h1087l-28 -154h-791l70 -436h600l-27 -151h-551l74 -469h440l-26 -154h-566l-49 332h-569l-170 -332h-180zM403 479h478l-105 766z" />
<glyph unicode="&#xc7;" horiz-adv-x="1056" d="M111 295q0 38 10 100l104 592q38 214 160 305.5t369 91.5q186 0 340 -43l-35 -147q-167 37 -320 37q-169 0 -243.5 -56.5t-102.5 -209.5l-100 -572q-8 -44 -8 -86q0 -94 59 -134t203 -40q145 0 325 33l7 -148q-153 -31 -336 -38l-37 -111q34 6 63 6q57 0 90 -29.5 t33 -81.5q0 -84 -60 -133t-173 -49q-70 0 -152 29l25 82q64 -21 127 -21q127 0 127 82q0 21 -19.5 34t-56.5 13q-47 0 -96 -6l-19 31l54 156q-338 25 -338 313z" />
<glyph unicode="&#xc8;" horiz-adv-x="1093" d="M82 0l240 1364h794l-29 -154h-618l-76 -436h574l-27 -151h-575l-84 -469h622l-26 -154h-795zM528 1628l80 101q97 -82 219 -164l-69 -97q-106 60 -230 160z" />
<glyph unicode="&#xc9;" horiz-adv-x="1093" d="M82 0l240 1364h794l-29 -154h-618l-76 -436h574l-27 -151h-575l-84 -469h622l-26 -154h-795zM637 1567q145 87 237 159l70 -108q-124 -90 -246 -152z" />
<glyph unicode="&#xca;" horiz-adv-x="1093" d="M82 0l240 1364h794l-29 -154h-618l-76 -436h574l-27 -151h-575l-84 -469h622l-26 -154h-795zM500 1559q163 93 262 159q100 -81 223 -168l-57 -86q-101 52 -185 109q-98 -62 -192 -109z" />
<glyph unicode="&#xcb;" horiz-adv-x="1093" d="M82 0l240 1364h794l-29 -154h-618l-76 -436h574l-27 -151h-575l-84 -469h622l-26 -154h-795zM459 1499l26 154h162l-26 -154h-162zM842 1499l26 154h162l-26 -154h-162z" />
<glyph unicode="&#xcc;" horiz-adv-x="540" d="M92 0l240 1364h172l-240 -1364h-172zM217 1628l80 101q97 -82 219 -164l-70 -97q-103 58 -229 160z" />
<glyph unicode="&#xcd;" horiz-adv-x="540" d="M92 0l240 1364h172l-240 -1364h-172zM346 1567q149 89 238 159l69 -108q-127 -92 -245 -152z" />
<glyph unicode="&#xce;" horiz-adv-x="540" d="M92 0l240 1364h172l-240 -1364h-172zM203 1559q163 93 262 159q100 -81 223 -168l-57 -86q-101 52 -185 109q-98 -62 -192 -109z" />
<glyph unicode="&#xcf;" horiz-adv-x="540" d="M92 0l240 1364h172l-240 -1364h-172zM168 1499l27 154h161l-26 -154h-162zM551 1499l27 154h161l-26 -154h-162z" />
<glyph unicode="&#xd0;" horiz-adv-x="1267" d="M86 623l25 139h157l107 602h459q201 0 293 -85t92 -230q0 -45 -9 -95l-104 -594q-17 -97 -46.5 -161t-84.5 -110.5t-141 -67.5t-211 -21h-488l109 623h-158zM334 154h289q110 0 174 24.5t95.5 74t47.5 140.5l98 559q9 61 9 84q0 86 -54 130t-182 44h-291l-80 -448h258 l-24 -139h-258z" />
<glyph unicode="&#xd1;" horiz-adv-x="1345" d="M82 0l240 1364h229l393 -1180l207 1180h168l-240 -1364h-233l-391 1163l-205 -1163h-168zM557 1552q33 55 84.5 91t112.5 36q44 0 113.5 -38.5t101.5 -38.5q31 0 51.5 13t48.5 46l72 -51q-36 -63 -76.5 -95t-103.5 -32q-49 0 -120.5 39t-101.5 39q-7 0 -14.5 -1.5 t-13.5 -3t-13.5 -5t-12 -6t-12.5 -8.5t-11.5 -8.5t-11.5 -9.5t-10.5 -9.5t-11 -10.5t-10.5 -10z" />
<glyph unicode="&#xd2;" horiz-adv-x="1267" d="M115 317q0 45 8 89l98 559q39 220 167 319.5t390 99.5q204 0 317 -98t113 -256q0 -30 -8 -76l-100 -571q-17 -96 -53 -166.5t-100 -125.5t-166 -83t-242 -28q-215 0 -319.5 90.5t-104.5 246.5zM287 328q0 -96 63.5 -146.5t214.5 -50.5q172 0 257.5 66.5t109.5 199.5 l98 559q8 50 8 74q0 99 -66 151t-212 52q-173 0 -258 -64.5t-111 -212.5l-96 -548q-8 -47 -8 -80zM559 1628l80 101q97 -82 219 -164l-70 -97q-103 58 -229 160z" />
<glyph unicode="&#xd3;" horiz-adv-x="1267" d="M115 317q0 45 8 89l98 559q39 220 167 319.5t390 99.5q204 0 317 -98t113 -256q0 -30 -8 -76l-100 -571q-17 -96 -53 -166.5t-100 -125.5t-166 -83t-242 -28q-215 0 -319.5 90.5t-104.5 246.5zM287 328q0 -96 63.5 -146.5t214.5 -50.5q172 0 257.5 66.5t109.5 199.5 l98 559q8 50 8 74q0 99 -66 151t-212 52q-173 0 -258 -64.5t-111 -212.5l-96 -548q-8 -47 -8 -80zM707 1567q145 87 237 159l70 -108q-124 -90 -246 -152z" />
<glyph unicode="&#xd4;" horiz-adv-x="1267" d="M115 317q0 45 8 89l98 559q39 220 167 319.5t390 99.5q204 0 317 -98t113 -256q0 -30 -8 -76l-100 -571q-17 -96 -53 -166.5t-100 -125.5t-166 -83t-242 -28q-215 0 -319.5 90.5t-104.5 246.5zM287 328q0 -96 63.5 -146.5t214.5 -50.5q172 0 257.5 66.5t109.5 199.5 l98 559q8 50 8 74q0 99 -66 151t-212 52q-173 0 -258 -64.5t-111 -212.5l-96 -548q-8 -47 -8 -80zM553 1559q163 93 262 159q100 -81 223 -168l-57 -86q-97 50 -184 109q-94 -60 -193 -109z" />
<glyph unicode="&#xd5;" horiz-adv-x="1267" d="M115 317q0 45 8 89l98 559q39 220 167 319.5t390 99.5q204 0 317 -98t113 -256q0 -30 -8 -76l-100 -571q-17 -96 -53 -166.5t-100 -125.5t-166 -83t-242 -28q-215 0 -319.5 90.5t-104.5 246.5zM287 328q0 -96 63.5 -146.5t214.5 -50.5q172 0 257.5 66.5t109.5 199.5 l98 559q8 50 8 74q0 99 -66 151t-212 52q-173 0 -258 -64.5t-111 -212.5l-96 -548q-8 -47 -8 -80zM520 1552q33 55 84.5 91t112.5 36q44 0 113.5 -38.5t101.5 -38.5q31 0 51.5 13t48.5 46l72 -51q-36 -63 -76.5 -95t-103.5 -32q-49 0 -120.5 39t-101.5 39q-9 0 -18 -2 t-16 -4t-16.5 -8t-14.5 -9t-15 -12t-13 -11.5t-14.5 -13.5t-12.5 -12z" />
<glyph unicode="&#xd6;" horiz-adv-x="1267" d="M115 317q0 45 8 89l98 559q39 220 167 319.5t390 99.5q204 0 317 -98t113 -256q0 -30 -8 -76l-100 -571q-17 -96 -53 -166.5t-100 -125.5t-166 -83t-242 -28q-215 0 -319.5 90.5t-104.5 246.5zM287 328q0 -96 63.5 -146.5t214.5 -50.5q172 0 257.5 66.5t109.5 199.5 l98 559q8 50 8 74q0 99 -66 151t-212 52q-173 0 -258 -64.5t-111 -212.5l-96 -548q-8 -47 -8 -80zM526 1499l27 154h162l-27 -154h-162zM909 1499l27 154h162l-27 -154h-162z" />
<glyph unicode="&#xd7;" horiz-adv-x="1073" d="M158 205l288 291l-288 290l100 101l289 -289l289 289l100 -101l-289 -290l289 -291l-100 -101l-289 291l-289 -291z" />
<glyph unicode="&#xd8;" horiz-adv-x="1267" d="M55 -68l129 172q-69 84 -69 213q0 45 8 89l98 559q39 220 167 319.5t390 99.5q184 0 301 -86l142 189l73 -55l-149 -199q63 -88 63 -203q0 -30 -8 -76l-100 -571q-17 -96 -53 -166.5t-100 -125.5t-166 -83t-242 -28q-179 0 -283 63l-125 -166zM287 328q0 -45 10 -74 l686 917q-68 62 -223 62q-173 0 -258 -64.5t-111 -212.5l-96 -548q-8 -47 -8 -80zM354 176q70 -45 211 -45q172 0 257.5 66.5t109.5 199.5l98 559q8 50 8 74q0 29 -6 53z" />
<glyph unicode="&#xd9;" horiz-adv-x="1292" d="M133 313q0 38 8 82l170 969h172l-170 -969q-6 -38 -6 -76q0 -96 64 -142t207 -46q165 0 248.5 69t107.5 206l170 958h172l-172 -979q-16 -94 -50.5 -164t-96.5 -126.5t-163 -85.5t-239 -29q-210 0 -316 90.5t-106 242.5zM610 1628l80 101q97 -82 219 -164l-69 -97 q-106 60 -230 160z" />
<glyph unicode="&#xda;" horiz-adv-x="1292" d="M133 313q0 38 8 82l170 969h172l-170 -969q-6 -38 -6 -76q0 -96 64 -142t207 -46q165 0 248.5 69t107.5 206l170 958h172l-172 -979q-16 -94 -50.5 -164t-96.5 -126.5t-163 -85.5t-239 -29q-210 0 -316 90.5t-106 242.5zM698 1567q149 89 238 159l70 -108 q-124 -90 -246 -152z" />
<glyph unicode="&#xdb;" horiz-adv-x="1292" d="M133 313q0 38 8 82l170 969h172l-170 -969q-6 -38 -6 -76q0 -96 64 -142t207 -46q165 0 248.5 69t107.5 206l170 958h172l-172 -979q-16 -94 -50.5 -164t-96.5 -126.5t-163 -85.5t-239 -29q-210 0 -316 90.5t-106 242.5zM580 1559q163 93 262 159q100 -81 223 -168 l-57 -86q-101 52 -185 109q-98 -62 -192 -109z" />
<glyph unicode="&#xdc;" horiz-adv-x="1292" d="M133 313q0 38 8 82l170 969h172l-170 -969q-6 -38 -6 -76q0 -96 64 -142t207 -46q165 0 248.5 69t107.5 206l170 958h172l-172 -979q-16 -94 -50.5 -164t-96.5 -126.5t-163 -85.5t-239 -29q-210 0 -316 90.5t-106 242.5zM541 1499l26 154h162l-27 -154h-161zM924 1499 l26 154h162l-27 -154h-161z" />
<glyph unicode="&#xdd;" horiz-adv-x="1095" d="M158 1364h166l231 -770l485 770h195l-625 -958l-71 -406h-172l73 420zM592 1567q145 87 237 159l70 -108q-124 -90 -246 -152z" />
<glyph unicode="&#xde;" horiz-adv-x="1148" d="M82 0l240 1364h172l-41 -240h307q352 0 352 -266q0 -39 -8 -86l-33 -188q-15 -86 -42.5 -144.5t-79.5 -103t-135.5 -65.5t-203.5 -21h-311l-45 -250h-172zM326 401h317q128 0 183.5 44.5t74.5 150.5l33 186q6 34 6 60q0 70 -45.5 99.5t-149.5 29.5h-319z" />
<glyph unicode="&#xdf;" horiz-adv-x="1202" d="M-68 -319q67 61 94 112t46 150l200 1138q23 133 70.5 210.5t137 116t233.5 38.5q160 0 249 -70.5t89 -187.5q0 -91 -23 -145t-106 -179l-27 -40.5t-24 -35.5t-18.5 -27.5t-15.5 -25.5t-10.5 -20.5t-8.5 -20t-3.5 -17.5t-1.5 -20q0 -24 21 -50t94 -89q85 -74 113 -111.5 t28 -87.5q0 -87 -14.5 -145.5t-52 -104.5t-108 -67.5t-177.5 -21.5q-124 0 -217 38l30 129q39 -11 99 -19.5t96 -8.5q99 0 136.5 33t37.5 131q0 30 -20.5 53.5t-91.5 83.5l-6 4.5t-5 4.5t-6 5q-70 59 -98.5 106.5t-28.5 96.5q0 65 22.5 116.5t79.5 129.5q84 116 110 171 t26 115q0 63 -48.5 99.5t-138.5 36.5q-116 0 -174.5 -52t-81.5 -184l-200 -1145q-22 -119 -64 -191t-139 -157z" />
<glyph unicode="&#xe0;" horiz-adv-x="1050" d="M78 178q0 24 8 78l70 395q17 96 44 160t77.5 113t130 71.5t196.5 22.5q179 0 359 -68l-168 -950h-140l7 121q-160 -141 -373 -141q-110 0 -160.5 53t-50.5 145zM248 199q0 -37 19 -55.5t63 -18.5q88 0 172 44.5t178 129.5l96 549q-91 24 -192 24q-121 0 -180.5 -50.5 t-84.5 -192.5l-63 -361q-8 -50 -8 -69zM449 1305l88 104q88 -86 227 -184l-76 -99q-130 81 -239 179z" />
<glyph unicode="&#xe1;" horiz-adv-x="1050" d="M78 178q0 24 8 78l70 395q17 96 44 160t77.5 113t130 71.5t196.5 22.5q179 0 359 -68l-168 -950h-140l7 121q-160 -141 -373 -141q-110 0 -160.5 53t-50.5 145zM248 199q0 -37 19 -55.5t63 -18.5q88 0 172 44.5t178 129.5l96 549q-91 24 -192 24q-121 0 -180.5 -50.5 t-84.5 -192.5l-63 -361q-8 -50 -8 -69zM506 1233q168 84 303 180l63 -113q-129 -91 -307 -174z" />
<glyph unicode="&#xe2;" horiz-adv-x="1050" d="M78 178q0 24 8 78l70 395q17 96 44 160t77.5 113t130 71.5t196.5 22.5q179 0 359 -68l-168 -950h-140l7 121q-160 -141 -373 -141q-110 0 -160.5 53t-50.5 145zM248 199q0 -37 19 -55.5t63 -18.5q88 0 172 44.5t178 129.5l96 549q-91 24 -192 24q-121 0 -180.5 -50.5 t-84.5 -192.5l-63 -361q-8 -50 -8 -69zM393 1206q165 97 287 187q76 -78 233 -195l-61 -88q-95 53 -190 131q-87 -67 -216 -131z" />
<glyph unicode="&#xe3;" horiz-adv-x="1050" d="M78 178q0 24 8 78l70 395q17 96 44 160t77.5 113t130 71.5t196.5 22.5q179 0 359 -68l-168 -950h-140l7 121q-160 -141 -373 -141q-110 0 -160.5 53t-50.5 145zM248 199q0 -37 19 -55.5t63 -18.5q88 0 172 44.5t178 129.5l96 549q-91 24 -192 24q-121 0 -180.5 -50.5 t-84.5 -192.5l-63 -361q-8 -50 -8 -69zM371 1204q34 56 84.5 91.5t111.5 35.5q44 0 114 -39t103 -39q29 0 50 13.5t51 46.5l71 -51q-36 -63 -77.5 -95t-104.5 -32q-49 0 -120 38.5t-101 38.5q-9 0 -18 -2t-16 -4t-16.5 -8t-14 -8.5t-15 -11.5t-13 -11.5t-14 -13.5t-12.5 -12 z" />
<glyph unicode="&#xe4;" horiz-adv-x="1050" d="M78 178q0 24 8 78l70 395q17 96 44 160t77.5 113t130 71.5t196.5 22.5q179 0 359 -68l-168 -950h-140l7 121q-160 -141 -373 -141q-110 0 -160.5 53t-50.5 145zM248 199q0 -37 19 -55.5t63 -18.5q88 0 172 44.5t178 129.5l96 549q-91 24 -192 24q-121 0 -180.5 -50.5 t-84.5 -192.5l-63 -361q-8 -50 -8 -69zM389 1153l31 172l160 6l-31 -172zM758 1153l30 172l160 6l-30 -172z" />
<glyph unicode="&#xe5;" horiz-adv-x="1050" d="M78 178q0 24 8 78l70 395q17 96 44 160t77.5 113t130 71.5t196.5 22.5q179 0 359 -68l-168 -950h-140l7 121q-160 -141 -373 -141q-110 0 -160.5 53t-50.5 145zM248 199q0 -37 19 -55.5t63 -18.5q88 0 172 44.5t178 129.5l96 549q-91 24 -192 24q-121 0 -180.5 -50.5 t-84.5 -192.5l-63 -361q-8 -50 -8 -69zM520 1231q0 79 48 127.5t132 48.5q59 0 94 -34t35 -83q0 -76 -45.5 -128t-134.5 -52q-59 0 -94 34t-35 87zM602 1241q0 -59 60 -59q40 0 61.5 28t21.5 70q0 57 -55 57q-39 0 -63.5 -27t-24.5 -69z" />
<glyph unicode="&#xe6;" horiz-adv-x="1470" d="M45 199q0 185 87 260.5t261 75.5h273l28 163q6 30 6 54q0 67 -46 94.5t-150 27.5q-146 0 -293 -32l-18 129q159 47 337 47q227 0 281 -146q109 146 322 146q127 0 200.5 -63.5t73.5 -180.5q0 -171 -144.5 -253.5t-451.5 -114.5l-25 -134q-4 -28 -4 -43q0 -55 36 -81.5 t116 -26.5q164 0 369 100l36 -127q-211 -114 -426 -114q-194 0 -260 108q-163 -108 -370 -108q-115 0 -176.5 58.5t-61.5 160.5zM209 205q0 -88 123 -88q65 0 142.5 22t146.5 60q-5 37 6 102q2 13 16 102h-242q-105 0 -148.5 -40t-43.5 -158zM834 537q226 21 321.5 78 t95.5 159q0 43 -30.5 75t-102.5 32q-112 0 -177.5 -60.5t-88.5 -183.5z" />
<glyph unicode="&#xe7;" horiz-adv-x="837" d="M72 203q0 39 8 80l72 370q40 205 134.5 285t293.5 80q125 0 241 -45l-37 -135q-103 34 -213 34q-122 0 -177 -51.5t-81 -191.5l-65 -373q-4 -28 -4 -43q0 -47 27 -67.5t91 -20.5q136 0 310 68l22 -138q-135 -61 -293 -73l-39 -113q34 6 64 6q57 0 90 -29.5t33 -81.5 q0 -84 -60.5 -133t-173.5 -49q-69 0 -151 29l24 82q64 -21 127 -21q127 0 127 82q0 21 -19 34t-56 13q-47 0 -97 -6l-18 31l53 156q-118 7 -175.5 65t-57.5 156z" />
<glyph unicode="&#xe8;" horiz-adv-x="927" d="M86 211q0 45 8 92l60 336q35 196 134.5 287.5t305.5 91.5q128 0 206.5 -59t78.5 -166q0 -128 -75.5 -203t-283.5 -144q-54 -18 -94 -30.5t-81 -25t-71 -21.5l-18 -103q-4 -23 -4 -45q0 -50 30.5 -75t106.5 -25q152 0 365 104l37 -125q-218 -120 -424 -120 q-145 0 -213 61.5t-68 169.5zM301 524q30 9 86 26t98 30q123 36 179.5 83.5t56.5 110.5q0 50 -36 78.5t-103 28.5q-118 0 -176 -49t-80 -170zM375 1305l88 104q88 -86 227 -184l-76 -99q-130 81 -239 179z" />
<glyph unicode="&#xe9;" horiz-adv-x="927" d="M86 211q0 45 8 92l60 336q35 196 134.5 287.5t305.5 91.5q128 0 206.5 -59t78.5 -166q0 -128 -75.5 -203t-283.5 -144q-54 -18 -94 -30.5t-81 -25t-71 -21.5l-18 -103q-4 -23 -4 -45q0 -50 30.5 -75t106.5 -25q152 0 365 104l37 -125q-218 -120 -424 -120 q-145 0 -213 61.5t-68 169.5zM301 524q30 9 86 26t98 30q123 36 179.5 83.5t56.5 110.5q0 50 -36 78.5t-103 28.5q-118 0 -176 -49t-80 -170zM479 1233q168 84 303 180l64 -113q-129 -91 -307 -174z" />
<glyph unicode="&#xea;" horiz-adv-x="927" d="M86 211q0 45 8 92l60 336q35 196 134.5 287.5t305.5 91.5q128 0 206.5 -59t78.5 -166q0 -128 -75.5 -203t-283.5 -144q-54 -18 -94 -30.5t-81 -25t-71 -21.5l-18 -103q-4 -23 -4 -45q0 -50 30.5 -75t106.5 -25q152 0 365 104l37 -125q-218 -120 -424 -120 q-145 0 -213 61.5t-68 169.5zM301 524q30 9 86 26t98 30q123 36 179.5 83.5t56.5 110.5q0 50 -36 78.5t-103 28.5q-118 0 -176 -49t-80 -170zM346 1206q165 97 287 187q76 -78 233 -195l-61 -88q-98 55 -191 131q-89 -68 -215 -131z" />
<glyph unicode="&#xeb;" horiz-adv-x="927" d="M86 211q0 45 8 92l60 336q35 196 134.5 287.5t305.5 91.5q128 0 206.5 -59t78.5 -166q0 -128 -75.5 -203t-283.5 -144q-54 -18 -94 -30.5t-81 -25t-71 -21.5l-18 -103q-4 -23 -4 -45q0 -50 30.5 -75t106.5 -25q152 0 365 104l37 -125q-218 -120 -424 -120 q-145 0 -213 61.5t-68 169.5zM301 524q30 9 86 26t98 30q123 36 179.5 83.5t56.5 110.5q0 50 -36 78.5t-103 28.5q-118 0 -176 -49t-80 -170zM340 1153l31 172l159 6l-30 -172zM709 1153l30 172l160 6l-31 -172z" />
<glyph unicode="&#xec;" horiz-adv-x="495" d="M72 0l174 985l172 25l-178 -1010h-168zM123 1305l88 104q88 -86 227 -184l-76 -99q-130 81 -239 179z" />
<glyph unicode="&#xed;" horiz-adv-x="495" d="M72 0l174 985l172 25l-178 -1010h-168zM258 1233q168 84 303 180l64 -113q-127 -90 -308 -174z" />
<glyph unicode="&#xee;" horiz-adv-x="495" d="M72 0l174 985l172 25l-178 -1010h-168zM98 1206q165 97 287 187q76 -78 233 -195l-61 -88q-95 53 -190 131q-89 -68 -215 -131z" />
<glyph unicode="&#xef;" horiz-adv-x="495" d="M72 0l174 985l172 25l-178 -1010h-168zM98 1153l31 172l160 6l-31 -172zM467 1153l31 172l159 6l-30 -172z" />
<glyph unicode="&#xf0;" horiz-adv-x="1075" d="M96 272q0 38 8 88l37 209q17 97 44 162.5t75 115t122.5 72.5t180.5 23q63 0 143 -14.5t134 -46.5q6 168 -113 278l-211 -110q-47 88 -47 90l168 90q-96 58 -209 82l41 123q178 -37 305 -131l172 92l49 -92l-139 -74q135 -141 135 -367q0 -57 -12 -131l-68 -383 q-31 -180 -139.5 -274t-329.5 -94q-175 0 -260.5 79t-85.5 213zM262 276q0 -76 46 -114.5t157 -38.5q134 0 196.5 53.5t83.5 171.5l68 387q-57 27 -129 44.5t-131 17.5q-119 0 -171 -54.5t-75 -179.5l-39 -213q-6 -40 -6 -74z" />
<glyph unicode="&#xf1;" d="M72 0l174 985l147 25l-12 -142q77 55 206.5 102.5t215.5 47.5q178 0 178 -176q0 -42 -8 -86l-133 -756h-168l135 768q4 24 4 35q0 30 -16.5 42.5t-53.5 12.5q-135 0 -376 -149l-125 -709h-168zM350 1204q33 55 84.5 91t112.5 36q44 0 114 -39t103 -39q29 0 49.5 13 t50.5 47l72 -51q-36 -63 -77.5 -95t-104.5 -32q-49 0 -120.5 38.5t-101.5 38.5q-10 0 -19.5 -1.5t-19.5 -7t-16.5 -8.5t-17.5 -12.5t-14.5 -12.5t-16 -15t-14.5 -14z" />
<glyph unicode="&#xf2;" horiz-adv-x="1036" d="M81 208q-14 69 3 150l51 291q33 187 145 278t324 91q167 0 257.5 -82.5t90.5 -214.5q0 -37 -6 -70l-55 -313q-15 -88 -46.5 -151.5t-85.5 -111t-137.5 -71.5t-197.5 -24q-104 0 -179 29t-112.5 79.5t-51.5 119.5zM252 350q-19 -111 23 -168t174 -57q126 0 190.5 54 t85.5 169l53 303q6 35 6 60q0 82 -49.5 121.5t-154.5 39.5q-122 0 -189.5 -57.5t-87.5 -175.5zM391 1305l88 104q86 -83 228 -184l-76 -99q-133 83 -240 179z" />
<glyph unicode="&#xf3;" horiz-adv-x="1036" d="M81 208q-14 69 3 150l51 291q33 187 145 278t324 91q167 0 257.5 -82.5t90.5 -214.5q0 -37 -6 -70l-55 -313q-15 -88 -46.5 -151.5t-85.5 -111t-137.5 -71.5t-197.5 -24q-104 0 -179 29t-112.5 79.5t-51.5 119.5zM252 350q-19 -111 23 -168t174 -57q126 0 190.5 54 t85.5 169l53 303q6 35 6 60q0 82 -49.5 121.5t-154.5 39.5q-122 0 -189.5 -57.5t-87.5 -175.5zM492 1233q168 84 303 180l63 -113q-129 -91 -307 -174z" />
<glyph unicode="&#xf4;" horiz-adv-x="1036" d="M81 208q-14 69 3 150l51 291q33 187 145 278t324 91q167 0 257.5 -82.5t90.5 -214.5q0 -37 -6 -70l-55 -313q-15 -88 -46.5 -151.5t-85.5 -111t-137.5 -71.5t-197.5 -24q-104 0 -179 29t-112.5 79.5t-51.5 119.5zM252 350q-19 -111 23 -168t174 -57q126 0 190.5 54 t85.5 169l53 303q6 35 6 60q0 82 -49.5 121.5t-154.5 39.5q-122 0 -189.5 -57.5t-87.5 -175.5zM369 1206q160 94 286 187q73 -75 234 -195l-62 -88q-95 53 -190 131q-89 -68 -215 -131z" />
<glyph unicode="&#xf5;" horiz-adv-x="1036" d="M81 208q-14 69 3 150l51 291q33 187 145 278t324 91q167 0 257.5 -82.5t90.5 -214.5q0 -37 -6 -70l-55 -313q-15 -88 -46.5 -151.5t-85.5 -111t-137.5 -71.5t-197.5 -24q-104 0 -179 29t-112.5 79.5t-51.5 119.5zM252 350q-19 -111 23 -168t174 -57q126 0 190.5 54 t85.5 169l53 303q6 35 6 60q0 82 -49.5 121.5t-154.5 39.5q-122 0 -189.5 -57.5t-87.5 -175.5zM340 1204q33 55 84.5 91t112.5 36q44 0 114 -39t103 -39q29 0 49.5 13t50.5 47l72 -51q-35 -63 -77.5 -95t-105.5 -32q-49 0 -120 38.5t-101 38.5q-9 0 -18 -2t-16 -4t-16.5 -8 t-14 -8.5t-15 -11.5t-13 -11.5t-14 -13.5t-12.5 -12z" />
<glyph unicode="&#xf6;" horiz-adv-x="1036" d="M81 208q-14 69 3 150l51 291q33 187 145 278t324 91q167 0 257.5 -82.5t90.5 -214.5q0 -37 -6 -70l-55 -313q-15 -88 -46.5 -151.5t-85.5 -111t-137.5 -71.5t-197.5 -24q-104 0 -179 29t-112.5 79.5t-51.5 119.5zM252 350q-19 -111 23 -168t174 -57q126 0 190.5 54 t85.5 169l53 303q6 35 6 60q0 82 -49.5 121.5t-154.5 39.5q-122 0 -189.5 -57.5t-87.5 -175.5zM371 1153l30 172l160 6l-31 -172zM739 1153l31 172l160 6l-31 -172z" />
<glyph unicode="&#xf7;" horiz-adv-x="1077" d="M123 434v127h831v-127h-831zM457 61v189h166v-189h-166zM457 745v189h166v-189h-166z" />
<glyph unicode="&#xf8;" horiz-adv-x="1036" d="M23 -49l110 137q-80 99 -49 270l51 291q33 187 145 278t324 91q143 0 230 -62l116 144l64 -51l-121 -148q59 -74 59 -180q0 -37 -6 -70l-55 -313q-15 -88 -46.5 -151.5t-85.5 -111t-137.5 -71.5t-197.5 -24q-141 0 -229 53l-111 -135zM250 233l485 598q-53 41 -155 41 q-122 0 -189.5 -57.5t-87.5 -175.5l-51 -289q-13 -72 -2 -117zM297 160q47 -35 152 -35q126 0 190.5 54t85.5 169l53 303q6 35 6 60q0 26 -6 47z" />
<glyph unicode="&#xf9;" d="M96 156q0 42 8 86l132 743l172 25l-138 -781q-4 -24 -4 -34q0 -30 16.5 -43t53.5 -13q134 0 377 150l121 696l174 25l-179 -1010h-143l10 129q-77 -55 -206.5 -102t-215.5 -47q-178 0 -178 176zM432 1305l88 104q86 -83 228 -184l-76 -99q-133 83 -240 179z" />
<glyph unicode="&#xfa;" d="M96 156q0 42 8 86l132 743l172 25l-138 -781q-4 -24 -4 -34q0 -30 16.5 -43t53.5 -13q134 0 377 150l121 696l174 25l-179 -1010h-143l10 129q-77 -55 -206.5 -102t-215.5 -47q-178 0 -178 176zM522 1233q168 84 303 180l64 -113q-129 -91 -307 -174z" />
<glyph unicode="&#xfb;" d="M96 156q0 42 8 86l132 743l172 25l-138 -781q-4 -24 -4 -34q0 -30 16.5 -43t53.5 -13q134 0 377 150l121 696l174 25l-179 -1010h-143l10 129q-77 -55 -206.5 -102t-215.5 -47q-178 0 -178 176zM403 1206q165 97 287 187q73 -75 234 -195l-62 -88q-95 53 -190 131 q-89 -68 -215 -131z" />
<glyph unicode="&#xfc;" d="M96 156q0 42 8 86l132 743l172 25l-138 -781q-4 -24 -4 -34q0 -30 16.5 -43t53.5 -13q134 0 377 150l121 696l174 25l-179 -1010h-143l10 129q-77 -55 -206.5 -102t-215.5 -47q-178 0 -178 176zM401 1153l31 172l160 6l-31 -172zM770 1153l31 172l160 6l-31 -172z" />
<glyph unicode="&#xfd;" horiz-adv-x="888" d="M-20 -297q121 43 199.5 110t146.5 187h-60l-155 983l161 23l127 -873l283 590q37 75 37 151q0 51 -17 111l162 25q17 -74 17 -131q0 -104 -35 -174l-346 -705q-38 -69 -67 -115t-70.5 -96.5t-87 -86t-108.5 -69t-142 -59.5zM373 1233q168 84 303 180l63 -113 q-129 -91 -307 -174z" />
<glyph unicode="&#xfe;" horiz-adv-x="1048" d="M-4 -428l323 1833l175 25l-99 -543q160 131 367 131q209 0 209 -199q0 -41 -6 -78l-70 -393q-14 -78 -33 -133.5t-52 -102t-80.5 -74.5t-117 -43t-163.5 -15q-97 0 -207 26l-74 -409zM266 150q95 -25 201 -25q133 0 185.5 49t78.5 197l64 362q6 37 6 64q0 38 -18 56.5 t-62 18.5q-90 0 -174 -45t-185 -131z" />
<glyph unicode="&#xff;" horiz-adv-x="888" d="M-20 -297q121 43 199.5 110t146.5 187h-60l-155 983l161 23l127 -873l283 590q37 75 37 151q0 51 -17 111l162 25q17 -74 17 -131q0 -104 -35 -174l-346 -705q-38 -69 -67 -115t-70.5 -96.5t-87 -86t-108.5 -69t-142 -59.5zM258 1153l31 172l160 6l-31 -172zM627 1153 l30 172l160 6l-31 -172z" />
<glyph unicode="&#x152;" horiz-adv-x="1820" d="M117 338q0 44 8 88l94 518q39 220 167 320t390 100h1067l-28 -154h-619l-76 -436h574l-27 -151h-575l-84 -469h622l-26 -154h-1063q-215 0 -319.5 91t-104.5 247zM289 348q0 -96 63.5 -146t214.5 -50h269l186 1060h-264q-173 0 -258 -64t-111 -212l-92 -508 q-8 -47 -8 -80z" />
<glyph unicode="&#x153;" horiz-adv-x="1538" d="M81 208q-14 69 3 150l51 291q33 189 139.5 279t321.5 90q83 0 161.5 -33.5t127.5 -95.5q61 70 138 99.5t194 29.5q128 0 206 -58.5t78 -166.5q0 -125 -78.5 -199.5t-279.5 -140.5q-146 -49 -246 -78l-18 -105q-13 -76 15 -112.5t118 -36.5q151 0 364 104l37 -125 q-218 -120 -424 -120q-88 0 -150 30.5t-87 77.5q-64 -58 -140.5 -83t-187.5 -25q-104 0 -179 29t-112.5 79.5t-51.5 119.5zM252 350q-19 -111 23 -168t174 -57q126 0 190.5 54t85.5 169l55 316q4 20 4 47q0 82 -49.5 121.5t-154.5 39.5q-122 0 -189.5 -57.5t-87.5 -175.5z M924 524q29 8 85 25.5t99 30.5q124 37 179.5 81.5t55.5 106.5q0 113 -139 113q-118 0 -176 -49t-80 -170z" />
<glyph unicode="&#x178;" horiz-adv-x="1095" d="M158 1364h166l231 -770l485 770h195l-625 -958l-71 -406h-172l73 420zM420 1499l26 154h162l-26 -154h-162zM803 1499l26 154h162l-26 -154h-162z" />
<glyph unicode="&#x2c6;" horiz-adv-x="786" d="M256 1206q165 97 287 187q76 -78 233 -195l-61 -88q-98 55 -191 131q-89 -68 -215 -131z" />
<glyph unicode="&#x2dc;" horiz-adv-x="851" d="M256 1204q33 55 84.5 91t112.5 36q44 0 114 -39t103 -39q29 0 49.5 13t50.5 47l72 -51q-35 -63 -77.5 -95t-105.5 -32q-49 0 -120 38.5t-101 38.5q-9 0 -18 -2t-16 -4t-16.5 -8t-14 -8.5t-15 -11.5t-13 -11.5t-14 -13.5t-12.5 -12z" />
<glyph unicode="&#x2000;" horiz-adv-x="868" />
<glyph unicode="&#x2001;" horiz-adv-x="1737" />
<glyph unicode="&#x2002;" horiz-adv-x="868" />
<glyph unicode="&#x2003;" horiz-adv-x="1737" />
<glyph unicode="&#x2004;" horiz-adv-x="579" />
<glyph unicode="&#x2005;" horiz-adv-x="434" />
<glyph unicode="&#x2006;" horiz-adv-x="289" />
<glyph unicode="&#x2007;" horiz-adv-x="289" />
<glyph unicode="&#x2008;" horiz-adv-x="217" />
<glyph unicode="&#x2009;" horiz-adv-x="347" />
<glyph unicode="&#x200a;" horiz-adv-x="96" />
<glyph unicode="&#x2010;" horiz-adv-x="757" d="M152 506l22 141h488l-25 -141h-485z" />
<glyph unicode="&#x2011;" horiz-adv-x="757" d="M152 506l22 141h488l-25 -141h-485z" />
<glyph unicode="&#x2012;" horiz-adv-x="757" d="M152 506l22 141h488l-25 -141h-485z" />
<glyph unicode="&#x2013;" horiz-adv-x="995" d="M152 506l22 141h725l-25 -141h-722z" />
<glyph unicode="&#x2014;" horiz-adv-x="1273" d="M152 506l22 141h1004l-25 -141h-1001z" />
<glyph unicode="&#x2018;" horiz-adv-x="505" d="M246 958l41 234l166 240l63 -46l-123 -202h66l-39 -226h-174z" />
<glyph unicode="&#x2019;" horiz-adv-x="505" d="M246 977l123 203h-66l39 225h174l-41 -234l-166 -239z" />
<glyph unicode="&#x201a;" horiz-adv-x="522" d="M31 -203l123 203h-66l39 225h174l-41 -233l-166 -240z" />
<glyph unicode="&#x201c;" horiz-adv-x="862" d="M246 958l41 234l166 240l63 -46l-123 -202h66l-39 -226h-174zM602 958l41 234l166 240l63 -46l-122 -202h65l-39 -226h-174z" />
<glyph unicode="&#x201d;" horiz-adv-x="862" d="M246 977l123 203h-66l39 225h174l-41 -234l-166 -239zM602 977l123 203h-66l39 225h174l-41 -234l-165 -239z" />
<glyph unicode="&#x201e;" horiz-adv-x="878" d="M31 -203l123 203h-66l39 225h174l-41 -233l-166 -240zM387 -203l123 203h-66l39 225h174l-41 -233l-165 -240z" />
<glyph unicode="&#x2022;" horiz-adv-x="761" d="M154 662q0 103 72 175t175 72t176.5 -72.5t73.5 -174.5q0 -103 -73.5 -175.5t-176.5 -72.5t-175 72.5t-72 175.5z" />
<glyph unicode="&#x2026;" horiz-adv-x="1572" d="M106 0l39 225h174l-38 -225h-175zM631 0l39 225h174l-39 -225h-174zM1155 0l39 225h174l-39 -225h-174z" />
<glyph unicode="&#x202f;" horiz-adv-x="347" />
<glyph unicode="&#x2039;" horiz-adv-x="579" d="M94 500l322 395l110 -96l-258 -305l148 -322l-133 -66z" />
<glyph unicode="&#x203a;" horiz-adv-x="579" d="M76 205l258 305l-148 321l133 66l189 -393l-322 -395z" />
<glyph unicode="&#x205f;" horiz-adv-x="434" />
<glyph unicode="&#x20ac;" horiz-adv-x="1069" d="M31 453l20 108h178l37 213h-178l21 109h176l12 63q38 214 159.5 305.5t368.5 91.5q149 0 285 -38l-33 -138q-131 29 -266 29q-172 0 -247 -58.5t-103 -213.5l-8 -41h448l-18 -109h-449l-37 -213h447l-19 -108h-446l-10 -60q-9 -50 -9 -86q0 -97 56 -138.5t211 -41.5 q114 0 272 29l6 -142q-133 -34 -313 -34q-208 0 -305 83t-97 232q0 32 11 100l10 58h-180z" />
<glyph unicode="&#x2122;" horiz-adv-x="1032" d="M215 1298v66h322v-66h-125v-354h-72v354h-125zM618 944l15 420h82l110 -309l111 309h82l14 -420h-71l-7 289l-88 -238h-82l-88 238l-6 -289h-72z" />
<glyph unicode="&#x25fc;" horiz-adv-x="1013" d="M0 0v1014h1014v-1014h-1014z" />
</font>
</defs>
</svg>
